<svg id="Layer_1" data-name="Layer 1" xmlns="http://www.w3.org/2000/svg" viewBox="0 0 1000 1000"><defs><style>.cls-1{font-size:100px;fill:#231f20;font-family:CormorantGaramond-Bold, Cormorant Garamond;font-weight:700;letter-spacing:0.2em;}.cls-2{stroke:#000;stroke-miterlimit:10;}</style></defs><title>tsuki_logo3_Artboard 1</title><text class="cls-1" transform="translate(37.24 854.27)">TSUKI MILANO</text><path class="cls-2" d="M784.38,392.81c0,158-128.1,286.11-286.11,286.11s-286.1-128.1-286.1-286.11,128.09-286.1,286.1-286.1S784.38,234.8,784.38,392.81ZM749,270.16c-30.63-62.6-91.22-110.54-162.35-134.93-71.33-24.47-148.28-23.95-211,6.9C313.26,172.8,265,233.54,240.68,304.48c-24.39,71.13-23.72,148.39,6.9,211S338.8,626,409.93,650.4s148.39,23.73,211-6.9,110.55-91.22,134.94-162.35S779.59,332.76,749,270.16Z"/><path d="M346,125.19c-34.18,22.47-64.37,50.24-88.35,82.59a324.11,324.11,0,0,0-62.8,226.66c4,40.06,15.77,79.36,33.84,116.06a279.66,279.66,0,0,1-27.79-54.9l-.71-1.79-.62-1.84-1.22-3.67L195.9,481l-.62-1.84-.52-1.86-1-3.73-2.09-7.48-.52-1.86-.44-1.89-.84-3.79-1.67-7.59-.42-1.9-.32-1.91-.65-3.83-1.27-7.67A300,300,0,0,1,193.41,312a303.06,303.06,0,0,1,56.84-110,298.69,298.69,0,0,1,43.93-43.66A284.21,284.21,0,0,1,346,125.19Z"/><path d="M652.17,660.38C685.74,638.26,715.39,611,739,579.15a318.85,318.85,0,0,0,61.72-222.77c-3.91-39.37-15.46-78-33.19-114.09a273.55,273.55,0,0,1,27.37,54l.7,1.76.61,1.81,1.21,3.6,2.42,7.22.6,1.81.52,1.83,1,3.67,2.06,7.35.52,1.83.42,1.86.84,3.73,1.64,7.45.41,1.87.32,1.88.64,3.77,1.25,7.54A295.31,295.31,0,0,1,703.15,627.83,278.47,278.47,0,0,1,652.17,660.38Z"/><path d="M215.7,219.34C195,258.07,180.93,299.83,175.07,342.7a347.05,347.05,0,0,0,58.41,245.94c24.59,35.6,56.13,66.41,92.23,91.4a301.45,301.45,0,0,1-54.42-37.39l-1.6-1.32-1.53-1.41-3-2.82-6.1-5.64-1.53-1.41L256,628.57l-2.9-3-5.82-6-1.46-1.49-1.38-1.56-2.75-3.12-5.48-6.27-1.37-1.57L233.58,604,231,600.74l-5.15-6.56A322.81,322.81,0,0,1,169.41,474a326.15,326.15,0,0,1-3.63-132.74,321.11,321.11,0,0,1,18.56-63.79A308,308,0,0,1,215.7,219.34Z"/><path d="M780.83,564c20.27-38.1,34.12-79.15,39.87-121.29A341.4,341.4,0,0,0,763.29,201c-24.16-35-55.13-65.29-90.6-89.89a296.08,296.08,0,0,1,53.53,36.71l1.58,1.31,1.49,1.38,3,2.77,6,5.54,1.5,1.39,1.44,1.46,2.86,2.92,5.72,5.84,1.43,1.47,1.36,1.52,2.7,3.08,5.4,6.16,1.35,1.55,1.27,1.6,2.54,3.21,5.07,6.45a317.1,317.1,0,0,1,55.5,118.2A320.31,320.31,0,0,1,830,444.21a316.09,316.09,0,0,1-18.28,62.71A302,302,0,0,1,780.83,564Z"/></svg>