<svg id="Layer_1" data-name="Layer 1" xmlns="http://www.w3.org/2000/svg" viewBox="0 0 1000 1000"><defs><style>.cls-1,.cls-2{fill:#fff;}.cls-1{stroke:#fff;stroke-miterlimit:10;stroke-width:3.43px;}</style></defs><title>tsuki_logo3_Artboard 3</title><path class="cls-1" d="M908.49,499.8c0,225.73-183,408.71-408.71,408.71S91.07,725.53,91.07,499.8s183-408.71,408.71-408.71S908.49,274.08,908.49,499.8ZM857.9,324.59C814.14,235.16,727.59,166.68,626,131.83c-101.9-35-211.83-34.21-301.41,9.86-89.08,43.82-158,130.59-192.76,231.92C97,475.22,97.91,585.59,141.67,675S272,832.93,373.59,867.78s212,33.89,301.4-9.86S832.91,727.61,867.76,626,901.65,414,857.9,324.59Z"/><path class="cls-2" d="M282.27,117.5a495.86,495.86,0,0,0-69.48,52.63c-2.77,2.34-5.3,4.94-7.93,7.43L197,185.09c-2.67,2.45-5.08,5.17-7.57,7.78L182,200.78c-2.54,2.57-4.81,5.4-7.19,8.12l-7.08,8.21c-2.42,2.68-4.58,5.59-6.81,8.43l-6.67,8.53A460.12,460.12,0,0,0,78,388.2a455.53,455.53,0,0,0-14,171.35l1.37,10.75.68,5.37.35,2.69L67,581l1.9,10.67.94,5.34.47,2.67.59,2.65L73.22,613l1.19,5.29.59,2.65.73,2.62L78.63,634l1.45,5.23.72,2.62.85,2.59a486.09,486.09,0,0,0,33,80.64A414,414,0,0,1,76.32,646.2l-1-2.57L74.49,641l-1.69-5.24-3.39-10.49-.85-2.63L67.84,620l-1.43-5.33L63.54,604l-.71-2.67-.59-2.69-1.15-5.4-2.27-10.81-.56-2.7L57.82,577,57,571.57l-1.73-10.92a435.59,435.59,0,0,1,92-332l7.06-8.5c2.36-2.82,4.65-5.71,7.2-8.37L169,203.6c2.5-2.7,5-5.44,7.63-8l7.9-7.71c2.64-2.55,5.2-5.19,8-7.57l8.25-7.3,4.13-3.64c.7-.6,1.36-1.24,2.08-1.81l2.16-1.7A421.29,421.29,0,0,1,282.27,117.5Z"/><path class="cls-2" d="M719.62,882a489.5,489.5,0,0,0,68.27-51.78c2.72-2.3,5.21-4.86,7.8-7.31l7.69-7.4c2.62-2.41,5-5.08,7.44-7.66l7.31-7.77c2.49-2.53,4.72-5.31,7.06-8l7-8.07c2.37-2.64,4.49-5.5,6.69-8.29l6.55-8.39A450,450,0,0,0,934,447.48l-1.34-10.56-.67-5.28-.34-2.64-.46-2.63-1.87-10.49-.92-5.25L928,408l-.58-2.6L925.07,395l-1.17-5.21-.58-2.6-.71-2.57-2.85-10.29-1.42-5.15-.72-2.58-.82-2.54a479.64,479.64,0,0,0-32.44-79.29,406,406,0,0,1,37.76,77.51l1,2.53.83,2.57,1.67,5.16,3.34,10.31.83,2.58.71,2.61,1.41,5.23,2.82,10.48.71,2.62L936,409l1.13,5.31L939.35,425l.55,2.66.43,2.68.86,5.36,1.7,10.73A428.12,428.12,0,0,1,852.4,772.85l-6.94,8.36c-2.33,2.77-4.58,5.61-7.08,8.22l-7.34,8c-2.46,2.66-4.87,5.36-7.51,7.83l-7.76,7.58c-2.61,2.5-5.12,5.1-7.88,7.44l-8.12,7.17L795.71,831c-.68.59-1.34,1.22-2,1.77l-2.13,1.68A413.6,413.6,0,0,1,719.62,882Z"/><path class="cls-2" d="M96.12,252a529.27,529.27,0,0,0-38.3,85.4q-7.64,22.08-13.14,44.76c-3.63,15.11-6.69,30.35-8.9,45.71-.62,3.83-1.05,7.69-1.53,11.53S33.39,447.09,33,451c-.76,7.71-1.37,15.44-1.76,23.18q-1.2,23.22-.14,46.46A490.71,490.71,0,0,0,73.71,700.23q9.48,21.21,21,41.42,5.77,10.1,12,19.9t12.9,19.36c8.9,12.7,18.51,24.92,28.59,36.74s20.79,23.13,32,33.92a518,518,0,0,0,73,58.54,444.36,444.36,0,0,1-76.81-54.41,470.9,470.9,0,0,1-33.81-33.07,456.89,456.89,0,0,1-30.22-36.49q-7.1-9.5-13.71-19.36c-4.39-6.58-8.58-13.29-12.64-20.08q-12.12-20.41-22.21-42A469.88,469.88,0,0,1,20.31,521c-.45-15.83-.13-31.68,1-47.46.3-3.95.53-7.9,1-11.83s.72-7.88,1.27-11.8,1-7.85,1.61-11.75,1.16-7.82,1.89-11.7a462.75,462.75,0,0,1,10.46-46.2q6.48-22.78,15.13-44.81A453.61,453.61,0,0,1,96.12,252Z"/><path class="cls-2" d="M903.43,744.37a520.3,520.3,0,0,0,37.6-84q7.5-21.71,12.91-44c3.56-14.85,6.56-29.83,8.73-44.93a482.69,482.69,0,0,0-82.43-347c-8.75-12.49-18.19-24.5-28.1-36.12S831.72,165.59,820.69,155A510.2,510.2,0,0,0,749,97.39a437.46,437.46,0,0,1,75.54,53.45,461.47,461.47,0,0,1,33.25,32.51,447.73,447.73,0,0,1,29.73,35.87q7,9.33,13.48,19c4.32,6.47,8.44,13.07,12.43,19.75q11.93,20.06,21.84,41.25a463.92,463.92,0,0,1,17.54,43.3c5.09,14.72,9.44,29.71,13,44.86a462.15,462.15,0,0,1,5.64,185.46,453.42,453.42,0,0,1-10.3,45.42q-6.36,22.4-14.88,44.05A446.07,446.07,0,0,1,903.43,744.37Z"/></svg>