<svg id="Layer_1" data-name="Layer 1" xmlns="http://www.w3.org/2000/svg" viewBox="0 0 1000 1000"><defs><style>.cls-1{stroke:#000;stroke-miterlimit:10;stroke-width:7px;}</style></defs><title>tsuki_logo3_Artboard 2</title><path class="cls-1" d="M858.58,499.5c0,197.41-160,357.43-357.43,357.43s-357.43-160-357.43-357.43,160-357.43,357.43-357.43S858.58,302.1,858.58,499.5ZM814.34,346.27c-38.27-78.21-114-138.1-202.82-168.58-89.12-30.56-185.25-29.91-263.6,8.63C270,224.64,209.74,300.52,179.35,389.14,148.87,478,149.7,574.52,188,652.73s114,138.1,202.82,168.58S576.18,851,654.38,812.69s138.1-114,168.58-202.83S852.6,424.48,814.34,346.27Z"/><path d="M310.93,165.16a454.5,454.5,0,0,0-60,47,417.56,417.56,0,0,0-50.41,56.23,405.36,405.36,0,0,0-63.92,357.24,444.68,444.68,0,0,0,27.74,70.92c-28.07-42.77-46.52-92.27-54-143.54a374.77,374.77,0,0,1,9.89-154.4,378.55,378.55,0,0,1,71-137.45A362.66,362.66,0,0,1,310.93,165.16Z"/><path d="M693.41,833.78a448.33,448.33,0,0,0,58.91-46.21,410.85,410.85,0,0,0,49.51-55.28,398.75,398.75,0,0,0,62.85-351.11,438.14,438.14,0,0,0-27.2-69.73c27.63,42,45.81,90.68,53.17,141.09a370.8,370.8,0,0,1-79.55,287A355.89,355.89,0,0,1,693.41,833.78Z"/><path d="M148.14,282.77c-25.81,48.4-43.44,100.57-50.77,154.13a433.51,433.51,0,0,0,73,307.25c30.72,44.47,70.11,83,115.21,114.18a377.06,377.06,0,0,1-68-46.7l-2-1.66-1.91-1.75-3.8-3.52-7.62-7.05-1.91-1.77L198.52,794l-3.63-3.71-7.27-7.43L185.8,781l-1.73-1.94-3.43-3.91-6.85-7.84-1.71-2-1.62-2-3.23-4.08-6.43-8.19a406,406,0,0,1-75-316l2-10.22c.69-3.4,1.3-6.81,2.21-10.16l2.55-10.09c.85-3.36,1.66-6.73,2.75-10l3.1-9.92c1-3.3,2-6.63,3.25-9.86l3.57-9.74,1.79-4.87c.3-.8.57-1.63.91-2.42l1-2.38A384.39,384.39,0,0,1,148.14,282.77Z"/><path d="M854.15,713.38a475.28,475.28,0,0,0,31.71-73.87A437.81,437.81,0,0,0,904,561.85a426.75,426.75,0,0,0-123-363,467.07,467.07,0,0,0-61.89-51.28C766.68,173,808.85,209.37,841.79,253a396.09,396.09,0,0,1,69.34,147.67,400.15,400.15,0,0,1,4.44,163.07A384.24,384.24,0,0,1,854.15,713.38Z"/></svg>