<svg id="Layer_1" data-name="Layer 1" xmlns="http://www.w3.org/2000/svg" viewBox="0 0 1000 1000"><defs><style>.cls-1{font-size:85.5px;font-family:CormorantGaramond-Bold, Cormorant Garamond;font-weight:700;letter-spacing:0.03em;}.cls-1,.cls-2,.cls-3{fill:#fff;}.cls-2{stroke:#fff;stroke-miterlimit:10;stroke-width:2.3px;}</style></defs><title>tsuki_logo3_Artboard 4</title><text class="cls-1" transform="translate(190.32 864.25)">TSUKI MILANO</text><path class="cls-2" d="M775.42,458.43c0,151-122.43,273.46-273.46,273.46S228.5,609.46,228.5,458.43,350.94,185,502,185,775.42,307.4,775.42,458.43ZM741.57,341.2c-29.27-59.83-87.19-105.66-155.17-129-68.18-23.38-141.73-22.89-201.67,6.59C325.13,248.14,279,306.2,255.76,374c-23.32,68-22.68,141.83,6.59,201.66s87.19,105.66,155.18,129S559.36,727.31,619.19,698s105.66-87.19,129-155.17S770.85,401,741.57,341.2Z"/><path class="cls-3" d="M356.43,202.64a321.24,321.24,0,0,0-85.64,78,307,307,0,0,0-30.38,49.19A305.68,305.68,0,0,0,209.66,440.6c-.28,4.81-.66,9.62-.85,14.44l-.1,7.23-.06,3.62c0,1.21-.05,2.41,0,3.62l.25,7.23.12,3.62c0,1.21.09,2.41.2,3.61l.56,7.22.28,3.62.14,1.8.22,1.8a315.36,315.36,0,0,0,33.87,110.74,279.26,279.26,0,0,1-39.79-110l-.29-1.82-.2-1.84-.4-3.68-.79-7.35c-.16-1.23-.23-2.46-.28-3.69l-.2-3.7-.39-7.39c-.09-1.23-.08-2.46-.09-3.7v-3.7l0-7.41c.11-4.93.4-9.86.6-14.8a296.68,296.68,0,0,1,10-58.34A299.86,299.86,0,0,1,234,326.58,292.16,292.16,0,0,1,266.1,277,284.32,284.32,0,0,1,356.43,202.64Z"/><path class="cls-3" d="M649.05,714.18a316.31,316.31,0,0,0,84.15-76.71,302.2,302.2,0,0,0,29.85-48.36,294.42,294.42,0,0,0,20.27-53,290.78,290.78,0,0,0,9.95-55.86c.27-4.73.65-9.46.84-14.19l.1-7.11,0-3.56c0-1.18.06-2.37,0-3.55l-.24-7.11-.13-3.56c0-1.18-.08-2.37-.19-3.55l-.54-7.09-.28-3.56-.14-1.77-.22-1.77a310.14,310.14,0,0,0-33.24-108.86,274.25,274.25,0,0,1,39.17,108.13l.28,1.79.2,1.81.39,3.62.78,7.23c.16,1.2.23,2.41.28,3.62l.2,3.64.38,7.27c.09,1.21.08,2.42.09,3.63v3.64l0,7.28c-.1,4.86-.39,9.71-.58,14.56a291.52,291.52,0,0,1-9.81,57.37,295.16,295.16,0,0,1-21.18,54.21,286.61,286.61,0,0,1-31.62,48.76A279.27,279.27,0,0,1,649.05,714.18Z"/><path class="cls-3" d="M231.88,292.62a343.56,343.56,0,0,0-40.34,117.67,330.39,330.39,0,0,0-3.14,62,322.46,322.46,0,0,0,8.54,61.45,318.17,318.17,0,0,0,19.95,58.74c2.24,4.67,4.38,9.39,6.7,14l3.65,6.86,1.83,3.43c.61,1.15,1.21,2.3,1.9,3.4l4,6.67,2,3.34c.65,1.12,1.33,2.23,2.06,3.3l4.27,6.5,2.14,3.25,1.07,1.63,1.15,1.57,4.59,6.28,2.3,3.15,1.15,1.57,1.23,1.51,4.9,6,2.45,3,1.22,1.52,1.29,1.46,5.18,5.83,2.58,2.92,1.3,1.46,1.37,1.39,5.46,5.58,2.73,2.79,1.37,1.4,1.43,1.33A347.37,347.37,0,0,0,337,733a301,301,0,0,1-94.22-83l-1.21-1.57-1.14-1.62-2.27-3.25-4.55-6.51c-.78-1.07-1.48-2.19-2.17-3.32l-2.1-3.37-4.19-6.75c-.72-1.11-1.34-2.28-2-3.43l-1.93-3.47-3.85-7c-2.45-4.69-4.73-9.48-7.09-14.22a318.17,318.17,0,0,1-20.81-60,321.93,321.93,0,0,1-8.32-62.94,313.07,313.07,0,0,1,4.49-63.26A306.44,306.44,0,0,1,231.88,292.62Z"/><path class="cls-3" d="M772,622.06a338,338,0,0,0,39.61-115.68,324.15,324.15,0,0,0,3.08-61,316.94,316.94,0,0,0-8.4-60.4,312.32,312.32,0,0,0-19.61-57.74c-2.2-4.59-4.3-9.23-6.58-13.78l-3.59-6.74-1.8-3.38c-.6-1.12-1.18-2.25-1.86-3.33L769,293.47l-2-3.29c-.64-1.1-1.3-2.18-2-3.24l-4.2-6.39-2.1-3.19-1-1.6-1.13-1.55L752,268l-2.26-3.09-1.13-1.54-1.21-1.49-4.82-6-2.4-3-1.2-1.5-1.27-1.43-5.08-5.74-2.54-2.87L728.8,240l-1.34-1.37-5.37-5.49-2.68-2.74L718.06,229l-1.4-1.31a341.55,341.55,0,0,0-48-38.54,295.72,295.72,0,0,1,92.67,81.52l1.19,1.54,1.12,1.6,2.23,3.2,4.48,6.39c.77,1.05,1.46,2.16,2.14,3.27l2.06,3.31,4.12,6.63c.71,1.09,1.32,2.24,2,3.38l1.9,3.41,3.8,6.83c2.4,4.61,4.64,9.32,7,14a308.56,308.56,0,0,1,28.63,120.88,307.48,307.48,0,0,1-4.42,62.18A301,301,0,0,1,772,622.06Z"/></svg>